<svg width="46" height="52" viewBox="0 0 46 52" fill="none" xmlns="http://www.w3.org/2000/svg">
<path fill-rule="evenodd" clip-rule="evenodd" d="M21.7065 22.1692C21.9963 22.0988 22.2991 22.0615 22.6105 22.0615C23.0689 22.0615 23.5084 22.1423 23.9156 22.2903V17.0415C23.9156 15.7113 24.4563 14.4383 25.4137 13.5148L30.2326 8.86606C30.6933 8.42168 30.6668 7.67593 30.1757 7.26538C29.7557 6.91418 29.1389 6.93425 28.7425 7.31202L27.1252 8.85345C25.9162 10.0058 23.9156 9.14878 23.9156 7.4786C23.9156 6.94958 24.1362 6.44454 24.5244 6.08509L26.7249 4.04716C27.1512 3.65238 27.1646 2.9826 26.7544 2.57109L26.7155 2.53204C26.3768 2.19217 25.8393 2.15396 25.4559 2.44248C24.8219 2.9195 23.9156 2.46721 23.9156 1.67383V1.10455C23.9156 0.494522 23.4211 0 22.811 0C22.201 0 21.7065 0.494522 21.7065 1.10455V1.59542C21.7065 2.37651 20.7859 2.79335 20.1989 2.27805C19.8146 1.94069 19.2277 1.98692 18.9009 2.38029L18.779 2.52706C18.4076 2.97422 18.4507 3.63377 18.8772 4.02875L21.0986 6.08591C21.4862 6.44483 21.7065 6.94914 21.7065 7.47739C21.7065 9.14628 19.7064 10.0015 18.4998 8.84861L16.7321 7.15966C16.274 6.72189 15.5499 6.73071 15.1025 7.17953C14.6371 7.64652 14.6517 8.40644 15.1347 8.85519L20.1413 13.506C21.1394 14.4332 21.7065 15.734 21.7065 17.0962V22.1692ZM18.8534 25.196L15.1467 22.8721C14.0197 22.1656 12.6538 21.9475 11.3629 22.2681L4.86449 23.8817C4.24329 24.036 3.62553 23.6174 3.53853 22.9833C3.4641 22.4408 3.80872 21.9289 4.33932 21.7937L6.50439 21.2422C8.12289 20.83 8.4595 18.6797 7.04442 17.7925C6.59621 17.5115 6.05111 17.4302 5.54039 17.5681L2.64483 18.3501C2.08391 18.5016 1.50932 18.1572 1.37854 17.591L1.36613 17.5373C1.25811 17.0698 1.51122 16.5941 1.95935 16.4225C2.70024 16.1388 2.79847 15.1306 2.12628 14.7092L1.64394 14.4068C1.12709 14.0827 0.97078 13.4011 1.29481 12.8842C1.61884 12.3674 2.30051 12.2111 2.81736 12.5351L3.23326 12.7958C3.89505 13.2107 4.7372 12.6522 4.61241 11.8811C4.53071 11.3763 4.88164 10.9036 5.38848 10.8357L5.5776 10.8104C6.15375 10.7332 6.68965 11.1201 6.79775 11.6913L7.36077 14.666C7.459 15.1851 7.76926 15.6396 8.21682 15.9202C9.6308 16.8067 11.4178 15.5664 11.0819 13.9317L10.5899 11.5369C10.4623 10.9162 10.8544 10.3074 11.4723 10.1667C12.1152 10.0204 12.7513 10.4364 12.8749 11.0841L14.156 17.7964C14.4114 19.1345 15.2123 20.3059 16.3665 21.0295L19.8671 23.2241C19.3522 23.7559 18.9906 24.4369 18.8534 25.196ZM18.9323 26.9076L15.0403 28.8494C13.8213 29.4576 12.4042 29.5309 11.1289 29.0518L4.73215 26.6482C4.11493 26.4163 3.42843 26.7425 3.21838 27.3675C3.0165 27.9682 3.33187 28.6201 3.92815 28.8346L6.2286 29.6622C7.79894 30.2272 7.92659 32.3987 6.43326 33.1438C5.96059 33.3796 5.41096 33.4076 4.91676 33.2211L2.08427 32.1518C1.54043 31.9465 0.931001 32.2024 0.696703 32.7344L0.619797 32.909C0.413684 33.377 0.63435 33.9228 1.10779 34.1161C1.83096 34.4113 1.86897 35.4211 1.17004 35.7698L0.7308 35.989C0.184947 36.2613 -0.0367733 36.9246 0.235574 37.4705C0.507922 38.0163 1.17121 38.238 1.71706 37.9657L2.22646 37.7115C2.93638 37.3573 3.74573 37.9664 3.60193 38.7466C3.51495 39.2186 3.78908 39.6824 4.24445 39.8338L4.29676 39.8512C4.8481 40.0345 5.44145 39.7235 5.60438 39.1658L6.44547 36.2868C6.59382 35.7791 6.94724 35.3562 7.4206 35.12C8.91509 34.3743 10.5751 35.7819 10.0838 37.3782L9.42655 39.5135C9.26548 40.0368 9.52288 40.5977 10.0247 40.8168C10.6113 41.0729 11.2904 40.7637 11.4824 40.1531L13.4906 33.7656C13.8896 32.4967 14.7873 31.4444 15.9776 30.8506L20.1272 28.7801C19.5608 28.2947 19.1383 27.6463 18.9323 26.9076ZM21.7063 29.5902V34.9038C21.7063 36.2661 21.1392 37.5669 20.1412 38.494L15.1346 43.1449C14.6515 43.5936 14.6369 44.3535 15.1024 44.8205C15.5497 45.2693 16.2738 45.2782 16.732 44.8404L18.4996 43.1514C19.7063 41.9985 21.7063 42.8538 21.7063 44.5227C21.7063 45.0509 21.486 45.5552 21.0984 45.9141L18.8771 47.9713C18.4506 48.3663 18.4074 49.0258 18.7789 49.473L18.9008 49.6198C19.2275 50.0131 19.8144 50.0594 20.1987 49.722C20.7857 49.2067 21.7063 49.6235 21.7063 50.4046V50.8955C21.7063 51.5055 22.2008 52 22.8109 52C23.4209 52 23.9154 51.5055 23.9154 50.8955V50.3262C23.9154 49.5328 24.8218 49.0805 25.4557 49.5576C25.8392 49.8461 26.3766 49.8079 26.7154 49.468L26.7543 49.429C27.1645 49.0174 27.1511 48.3477 26.7248 47.9529L24.5242 45.915C24.136 45.5555 23.9154 45.0505 23.9154 44.5214C23.9154 42.8513 25.916 41.9943 27.1251 43.1466L28.7424 44.688C29.1387 45.0658 29.7555 45.0859 30.1756 44.7347C30.6666 44.3241 30.6931 43.5784 30.2325 43.134L25.4135 38.4853C24.4562 37.5618 23.9154 36.2887 23.9154 34.9585V29.4691C23.5083 29.6172 23.0688 29.6979 22.6105 29.6979C22.299 29.6979 21.9962 29.6606 21.7063 29.5902ZM24.8627 28.9633L28.8752 31.4789C30.0022 32.1855 30.7935 33.3198 31.0675 34.6215L32.4464 41.1737C32.5782 41.8001 33.2242 42.1737 33.8328 41.9757C34.3535 41.8064 34.6642 41.2731 34.5546 40.7367L34.1077 38.5476C33.7736 36.9112 35.5624 35.6713 36.9774 36.5585C37.4257 36.8395 37.7364 37.2947 37.8347 37.8145L38.3925 40.7615C38.5005 41.3323 39.0609 41.6995 39.6274 41.5705L39.6812 41.5583C40.1491 41.4518 40.467 41.0167 40.4262 40.5386C40.3588 39.7481 41.2234 39.2204 41.8956 39.6419L42.3779 39.9442C42.8948 40.2683 43.5764 40.112 43.9005 39.5951C44.2245 39.0783 44.0682 38.3966 43.5513 38.0726L43.1355 37.8118C42.4737 37.3969 42.6095 36.3956 43.3579 36.1719C43.8478 36.0255 44.1204 35.5037 43.9607 35.0179L43.9011 34.8366C43.7195 34.2844 43.1378 33.9706 42.5766 34.1222L39.6537 34.9115C39.1438 35.0493 38.5995 34.9681 38.1519 34.6875C36.7379 33.801 37.0757 31.6521 38.6934 31.2422L41.0633 30.6417C41.6776 30.486 42.0548 29.8678 41.9121 29.2504C41.7637 28.608 41.1121 28.2167 40.4753 28.3876L33.8755 30.1591C32.5598 30.5123 31.1564 30.3018 30.0022 29.5782L26.1971 27.1926C25.9354 27.9071 25.4663 28.5217 24.8627 28.9633ZM26.4215 25.6418C26.3735 24.8616 26.0912 24.1447 25.6442 23.5608L29.4449 21.6645C30.6638 21.0563 31.5746 19.9681 31.9587 18.6611L33.885 12.1048C34.0709 11.4722 34.7444 11.1198 35.37 11.3279C35.9714 11.5278 36.3025 12.1718 36.1154 12.7772L35.3933 15.1129C34.9003 16.7073 36.5585 18.1152 38.0519 17.3701C38.5245 17.1343 38.8774 16.712 39.0256 16.2049L39.8746 13.2988C40.0376 12.7408 40.6085 12.4078 41.1745 12.5405L41.3602 12.5841C41.8581 12.7008 42.1615 13.2053 42.0312 13.6998C41.8322 14.4551 42.6162 15.0928 43.3151 14.7441L43.7543 14.5249C44.3002 14.2526 44.9635 14.4743 45.2358 15.0201C45.5082 15.566 45.2864 16.2293 44.7406 16.5016L44.2312 16.7558C43.5213 17.11 43.5212 18.1229 44.2311 18.4772C44.6604 18.6915 44.8662 19.1895 44.7133 19.6444L44.6957 19.6966C44.5107 20.2474 43.9053 20.5344 43.3618 20.3292L40.5558 19.2699C40.0608 19.0831 39.5104 19.1112 39.037 19.3473C37.5426 20.093 37.6689 22.2658 39.2398 22.8332L41.3411 23.5922C41.8561 23.7782 42.1494 24.3211 42.0227 24.8538C41.8746 25.4765 41.2191 25.8331 40.6158 25.6193L34.3047 23.3827C33.0509 22.9384 31.6704 23.0229 30.4801 23.6167L26.4215 25.6418Z" fill="#454FC4"/>
</svg>
